M48
METRIC,LZ,000.000
;FILE_FORMAT=3:3
;TYPE=PLATED
;Layer: PTH_Through
;EasyEDA v6.5.15, 2022-09-15 03:13:50
;2db389ccdbee4c0ebea6c66897aa8e11,4bb84c5f6c124816bf94f4484d05adb3,10
;Gerber Generator version 0.2
;Holesize 1 = 0.701 mm
T01C0.701
;Holesize 2 = 0.915 mm
T02C0.915
;Holesize 3 = 1.000 mm
T03C1.000
;Holesize 4 = 1.200 mm
T04C1.200
;Holesize 5 = 1.524 mm
T05C1.524
%
G05
G90
T01
X034798Y072390
X034798Y071120
X034798Y069850
X054991Y072390
X054991Y071120
X054991Y069850
X075311Y072390
X075311Y071120
X075311Y069850
X095631Y072390
X095631Y071120
X095631Y069850
T02
X075438Y100330
X072898Y100330
X070358Y100330
X067818Y100330
X065278Y100330
X062738Y100330
X060198Y100330
X057658Y100330
X075438Y077470
X072898Y077470
X070358Y077470
X067818Y077470
X065278Y077470
X062738Y077470
X060198Y077470
X057658Y077470
T03
X107442Y087630
X107442Y090170
X109982Y087630
X109982Y090170
X026670Y090297
X026670Y087757
X024130Y090297
X024130Y087757
T04
X042672Y028702
X047752Y028702
X057150Y028702
X062230Y028702
X071755Y028702
X076835Y028702
X086233Y028702
X091313Y028702
X021971Y028702
X027051Y028702
X106934Y028702
X112014Y028702
T05
X034764Y057493
X046764Y057493
X040764Y059493
X046764Y045293
X034764Y045293
X054957Y057493
X066957Y057493
X060957Y059493
X066957Y045293
X054957Y045293
X075277Y057493
X087277Y057493
X081277Y059493
X087277Y045293
X075277Y045293
X095597Y057493
X107597Y057493
X101597Y059493
X107597Y045293
X095597Y045293
M30
