G04 Layer: BottomLayer*
G04 EasyEDA v6.5.15, 2022-09-15 03:13:50*
G04 2db389ccdbee4c0ebea6c66897aa8e11,4bb84c5f6c124816bf94f4484d05adb3,10*
G04 Gerber Generator version 0.2*
G04 Scale: 100 percent, Rotated: No, Reflected: No *
G04 Dimensions in millimeters *
G04 leading zeros omitted , absolute positions ,4 integer and 5 decimal *
%FSLAX45Y45*%
%MOMM*%

%ADD10C,0.2540*%
%ADD11C,1.0000*%
%ADD12C,1.8000*%
%ADD13C,2.5000*%
%ADD14C,2.0000*%
%ADD15O,1.5999968X0.8999982*%
%ADD16R,1.6000X0.9000*%
%ADD17C,1.5240*%
%ADD18R,1.5240X1.5240*%
%ADD19C,6.5000*%

%LPD*%
D10*
X3479800Y6985000D02*
G01*
X3479800Y5752693D01*
X3476396Y5749289D01*
X5499100Y6985000D02*
G01*
X5499100Y5752693D01*
X5495696Y5749289D01*
X7531100Y6985000D02*
G01*
X7531100Y5752693D01*
X7527696Y5749289D01*
X9563100Y6985000D02*
G01*
X9563100Y5752693D01*
X9559696Y5749289D01*
X3479800Y7239000D02*
G01*
X5499100Y7239000D01*
X5499100Y7239000D02*
G01*
X7531100Y7239000D01*
X7531100Y7239000D02*
G01*
X9575800Y7239000D01*
X9563100Y7239000D02*
G01*
X11861800Y7239000D01*
X11861800Y3556000D01*
X10693400Y3556000D01*
X10693400Y2870200D01*
X11861800Y7239000D02*
G01*
X11874500Y7239000D01*
X11874500Y9677400D01*
X7289800Y9677400D01*
X7289800Y10033000D01*
X10998200Y9017000D02*
G01*
X11874500Y9017000D01*
X2413000Y8775700D02*
G01*
X2413000Y8382000D01*
X7289800Y8382000D01*
X7289800Y10033000D01*
D11*
X2705100Y2870200D02*
G01*
X2705100Y3652773D01*
X2705100Y3657600D02*
G01*
X4267200Y3657600D01*
X4267200Y2882900D01*
X4267200Y3657600D02*
G01*
X5715000Y3657600D01*
X5715000Y2870200D01*
X5715000Y3657600D02*
G01*
X7175500Y3657600D01*
X7175500Y2870200D01*
X7175500Y3657600D02*
G01*
X8623300Y3657600D01*
X8623300Y2870200D01*
D12*
G01*
X10744200Y8763000D03*
G01*
X10744200Y9017000D03*
G01*
X10998200Y8763000D03*
G01*
X10998200Y9017000D03*
G01*
X2667000Y9029700D03*
G01*
X2667000Y8775700D03*
G01*
X2413000Y9029700D03*
G01*
X2413000Y8775700D03*
D13*
G01*
X3476396Y5749289D03*
G01*
X4676393Y5749289D03*
G01*
X4076395Y5949314D03*
G01*
X4676393Y4529302D03*
G01*
X3476396Y4529302D03*
G01*
X5495696Y5749289D03*
G01*
X6695693Y5749289D03*
G01*
X6095695Y5949314D03*
G01*
X6695693Y4529302D03*
G01*
X5495696Y4529302D03*
G01*
X7527696Y5749289D03*
G01*
X8727693Y5749289D03*
G01*
X8127695Y5949314D03*
G01*
X8727693Y4529302D03*
G01*
X7527696Y4529302D03*
G01*
X9559696Y5749289D03*
G01*
X10759693Y5749289D03*
G01*
X10159695Y5949314D03*
G01*
X10759693Y4529302D03*
G01*
X9559696Y4529302D03*
D14*
G01*
X4267200Y2870200D03*
G01*
X4775200Y2870200D03*
G01*
X5715000Y2870200D03*
G01*
X6223000Y2870200D03*
G01*
X7175500Y2870200D03*
G01*
X7683500Y2870200D03*
G01*
X8623300Y2870200D03*
G01*
X9131300Y2870200D03*
G01*
X2197100Y2870200D03*
G01*
X2705100Y2870200D03*
G01*
X10693400Y2870200D03*
G01*
X11201400Y2870200D03*
D15*
G01*
X3479800Y7239000D03*
G01*
X3479800Y7112000D03*
D16*
G01*
X3479800Y6985000D03*
D15*
G01*
X5499100Y7239000D03*
G01*
X5499100Y7112000D03*
D16*
G01*
X5499100Y6985000D03*
D15*
G01*
X7531100Y7239000D03*
G01*
X7531100Y7112000D03*
D16*
G01*
X7531100Y6985000D03*
D15*
G01*
X9563100Y7239000D03*
G01*
X9563100Y7112000D03*
D16*
G01*
X9563100Y6985000D03*
D17*
G01*
X7543800Y10033000D03*
D18*
G01*
X7289800Y10033000D03*
D17*
G01*
X7035800Y10033000D03*
G01*
X6781800Y10033000D03*
G01*
X6527800Y10033000D03*
G01*
X6273800Y10033000D03*
G01*
X6019800Y10033000D03*
G01*
X5765800Y10033000D03*
G01*
X7543800Y7747000D03*
G01*
X7289800Y7747000D03*
G01*
X7035800Y7747000D03*
G01*
X6781800Y7747000D03*
G01*
X6527800Y7747000D03*
G01*
X6273800Y7747000D03*
G01*
X6019800Y7747000D03*
G01*
X5765800Y7747000D03*
D19*
G01*
X12344400Y10147300D03*
G01*
X12344400Y2857500D03*
G01*
X1054100Y2857500D03*
G01*
X1054100Y10147300D03*
M02*
